# xmcd
#
# Track frame offsets: 
#        183
#        9178
#        18895
#        28238
#        38940
#        49583
#        59793
#        71878
#        85028
#        98465
#        110523
#        120023
#        132423
#        139775
#        149513
#        160270
#        170833
#        179543
#        188805
#        202275
#        213575
#        221583
#        232588
#        244988
#        256340
#        266510
#
# Disc length: 3681 seconds
#
# Revision: 5
# Processed by: cddbd v1.5.2PL0 Copyright (c) Steve Scherf et al.
# Submitted via: ExactAudioCopyFreeDBPlugin 1.0
#
DISCID=7d0e5f1a
DTITLE=Various Artist - Hits Of 1960
DYEAR=1960
DGENRE=Pop
TTITLE0=John Barry Seven - Hit And Miss
TTITLE1=Tommy Bruce And The Bruisers - Ain't Misbehaving
TTITLE2=Adam Faith - Someone Else's Baby
TTITLE3=Johnny Kidd And The Pirates - Shakin' All Over
TTITLE4=Michael Holliday - Starry Eyed
TTITLE5=The Avons - Seven Little Girls Sitting In The Back Seat
TTITLE6=Richie Valance - Tell Laura I Love Her
TTITLE7=The Shadows - Apache
TTITLE8=Cliff Richard - Please Don't Tease
TTITLE9=Norrie Paramor - Theme For A Summer Place
TTITLE10=The Ventures - Walk Don't Run
TTITLE11=The King Brothers - Standing On The Corner
TTITLE12=Adam Faith - What Do You Want
TTITLE13=Gene Vincent - Pistol Packin' Mama
TTITLE14=Eddie Cochran - Three Steps To Heaven
TTITLE15=Johnny Burnett - Dreamin'
TTITLE16=Fats Domino - Walking To New Orleans
TTITLE17=Cliff Richard - I Love You
TTITLE18=Shirley Bassey - As Long As He Needs Me
TTITLE19=Sandy Nelson - Tean Beat
TTITLE20=Adam Faith - Poor Me
TTITLE21=Piltdown Men - McDonald's Cave
TTITLE22=Matt Munro - Portrait Of My Love
TTITLE23=Alma Cogan - The Train Of Love
TTITLE24=Jerry Lordan - Who Could Be Bluer
TTITLE25=Cliff Richard - Nine Times Out Of Ten
EXTD=YEAR: 1960
EXTT0=
EXTT1=
EXTT2=
EXTT3=
EXTT4=
EXTT5=
EXTT6=
EXTT7=
EXTT8=
EXTT9=
EXTT10=
EXTT11=
EXTT12=
EXTT13=
EXTT14=
EXTT15=
EXTT16=
EXTT17=
EXTT18=
EXTT19=
EXTT20=
EXTT21=
EXTT22=
EXTT23=
EXTT24=
EXTT25=
PLAYORDER=
